<svg xmlns="http://www.w3.org/2000/svg" width="160" height="37" viewBox="0 0 160 37">
    <g fill="none" fill-rule="evenodd">
        <g fill="#00A7E1">
            <g>
                <path d="M134.889.857c2.22-1.186 5.578-.58 7.058 2.206l5.708 10.718 3.936-10.13c1.154-2.967 4.422-3.963 6.76-3.03 1.357.537 1.847 1.498.505 4.948l-10.876 27.96c-1.155 2.965-4.424 3.962-6.765 3.03-1.353-.536-1.845-1.499-.5-4.952l3.372-8.657-9.14-17.174c-1.725-3.237-1.345-4.233-.058-4.919zM117.123.453c6.072 0 12.623 4.113 12.623 13.195v3.663c0 1.884.895 4.515 2.154 6.399.36.507.654 1.371.412 2.269-.228.87-.937 1.571-2.04 2.05-.563.242-1.09.363-1.594.363-.91 0-1.694-.398-2.396-1.244-.433-.541-.877-1.169-1.394-2.067-1.838 1.79-4.677 3.771-9.664 3.771-6.825 0-12.293-5.252-12.293-13.77 0-7.987 5.813-14.629 14.192-14.629zm-71.736 0c9.491 0 14.447 6.36 14.447 14.197 0 7.838-4.956 14.202-14.447 14.202-9.489 0-14.448-6.364-14.448-14.202C30.94 6.813 35.9.453 45.387.453zm-30.94 0c6.48 0 11.177 3.22 11.583 5.807.374 2.337-2.805 4.808-5.218 2.913-1.947-1.526-3.663-2.401-6.364-2.401-4.046 0-7.03 2.937-7.03 7.879 0 5.551 3.522 7.843 7.188 8.328 2.577.346 6.897-.22 9.575-2.73.703.408 1.56 1.687 1.302 3.076-.588 3.184-4.671 5.527-10.35 5.527C4.377 28.852 0 22.045 0 14.651 0 6.814 4.96.453 14.448.453zM95.922.46c1.728 0 3.297.927 2.964 2.419l-5.063 22.334c-.478 2.102-2.364 3.398-4.7 3.398-2.438 0-4.37-1.376-4.9-3.398l-2.8-11.825-2.801 11.825c-.527 2.022-2.462 3.398-4.899 3.398-2.338 0-4.227-1.296-4.702-3.398L63.96 2.879c-.34-1.492 1.233-2.42 2.96-2.42 2.44 0 3.779 1.09 4.159 3.088l2.816 15.815c.018.092.153.096.173.006l3.651-15.107C78.404 1.635 79.182.46 81.423.46c2.235 0 3.014 1.175 3.697 3.801l3.651 15.107c.023.09.156.086.174-.006L91.76 3.547C92.146 1.549 93.483.46 95.92.46zM45.387 6.772c-4.046 0-7.027 2.937-7.027 7.878 0 4.949 2.98 7.88 7.027 7.88 4.048 0 7.026-2.931 7.026-7.88 0-4.94-2.978-7.878-7.026-7.878zm72.002.006c-3.582-.294-6.367 2.84-6.998 7.303-.622 4.468 1.374 8.091 4.77 8.397 4.36.407 6.89-3.531 7.152-8.098.234-4.474-1.416-7.419-4.924-7.602z" transform="translate(-880 -366) translate(880 366)"/>
            </g>
        </g>
    </g>
</svg>
